<?xml version="1.0" standalone="no"?><!DOCTYPE svg PUBLIC "-//W3C//DTD SVG 1.1//EN" "http://www.w3.org/Graphics/SVG/1.1/DTD/svg11.dtd"><svg t="1664443628764" class="icon" viewBox="0 0 1024 1024" version="1.1" xmlns="http://www.w3.org/2000/svg" p-id="3443" xmlns:xlink="http://www.w3.org/1999/xlink" width="200" height="200"><path d="M0 512a512 512 0 1 0 1024 0A512 512 0 1 0 0 512z" fill="#030502" p-id="3444"></path><path d="M840.277 383.595l-312-208a29.333 29.333 0 0 0-32.554 0l-312 208A29.717 29.717 0 0 0 170.667 408v208c0 10.07 5.397 19.35 13.056 24.405l312 208a29.333 29.333 0 0 0 32.554 0l312-208c7.531-4.906 13.056-14.229 13.056-24.405V408c0-9.45-4.842-18.987-13.056-24.405zM541.333 254.827L771.18 408.043l-102.656 68.672-127.19-85.078v-136.81z m-58.666 0v136.81l-127.168 85.078L252.82 408.02l229.846-153.194zM229.333 462.912l73.387 49.067-73.387 49.109v-98.176z m253.334 306.261L252.8 615.957l102.677-68.65 127.147 85.056v136.81zM512 581.397L408.256 512 512 442.603 615.744 512 512 581.397z m29.333 187.776v-136.81l127.19-85.056 102.656 68.65-229.846 153.216z m253.334-208.085L721.28 512l73.387-49.088v98.155z" fill="#FFFFFF" p-id="3445"></path></svg>