<?xml version="1.0" standalone="no"?><!DOCTYPE svg PUBLIC "-//W3C//DTD SVG 1.1//EN" "http://www.w3.org/Graphics/SVG/1.1/DTD/svg11.dtd"><svg t="1730458055926" class="icon" viewBox="0 0 1024 1024" version="1.1" xmlns="http://www.w3.org/2000/svg" p-id="3265" xmlns:xlink="http://www.w3.org/1999/xlink" width="200" height="200"><path d="M476.672 727.338667l-207.786667-200.448a17.578667 17.578667 0 0 0-24.405333 0l-25.941333 25.173333a17.066667 17.066667 0 0 0 0 24.576l281.258666 271.786667a17.578667 17.578667 0 0 0 24.405334 0l281.258666-271.786667a17.066667 17.066667 0 0 0 0-24.576l-25.941333-25.173333a17.578667 17.578667 0 0 0-24.448 0l-207.786667 200.448V187.904A17.322667 17.322667 0 0 0 529.92 170.666667h-35.754667a17.322667 17.322667 0 0 0-17.450666 17.237333v539.434667z" p-id="3266"></path></svg>
