<?xml version="1.0" standalone="no"?><!DOCTYPE svg PUBLIC "-//W3C//DTD SVG 1.1//EN" "http://www.w3.org/Graphics/SVG/1.1/DTD/svg11.dtd"><svg t="1730456267178" class="icon" viewBox="0 0 1024 1024" version="1.1" xmlns="http://www.w3.org/2000/svg" p-id="4269" xmlns:xlink="http://www.w3.org/1999/xlink" width="200" height="200"><path d="M128 597.333333a42.666667 42.666667 0 0 1 42.666667-42.666666h512a128 128 0 0 0 128-128V256a42.666667 42.666667 0 1 1 85.333333 0v170.666667a213.333333 213.333333 0 0 1-213.333333 213.333333H170.666667a42.666667 42.666667 0 0 1-42.666667-42.666667z" p-id="4270"></path><path d="M140.501333 627.498667a42.666667 42.666667 0 0 1 0-60.330667l170.666667-170.666667a42.666667 42.666667 0 0 1 60.330667 60.330667L230.997333 597.333333l140.501334 140.501334a42.666667 42.666667 0 1 1-60.330667 60.330666l-170.666667-170.666666z" p-id="4271"></path></svg>
