<?xml version="1.0" standalone="no"?><!DOCTYPE svg PUBLIC "-//W3C//DTD SVG 1.1//EN" "http://www.w3.org/Graphics/SVG/1.1/DTD/svg11.dtd"><svg t="1731059487351" class="icon" viewBox="0 0 1024 1024" version="1.1" xmlns="http://www.w3.org/2000/svg" p-id="48687" xmlns:xlink="http://www.w3.org/1999/xlink" width="200" height="200"><path d="M786.542 630.267H646.88l23 23V493.163c0-12.538-10.462-23-23-23s-23 10.462-23 23v160.104c0 12.538 10.462 23 23 23h139.662c12.538 0 23-10.462 23-23s-10.462-23-23-23zM87.239 192.475H804c12.538 0 23-10.462 23-23s-10.462-23-23-23H87.239c-12.538 0-23 10.462-23 23s10.462 23 23 23H804c12.538 0 23-10.462 23-23s-10.462-23-23-23H87.239c-12.538 0-23 10.462-23 23s10.462 23 23 23z m0 201.796h281.573c12.538 0 23-10.462 23-23s-10.462-23-23-23H87.239c-12.538 0-23 10.462-23 23s10.462 23 23 23h281.573c12.538 0 23-10.462 23-23s-10.462-23-23-23H87.239c-12.538 0-23 10.462-23 23s10.462 23 23 23z" p-id="48688"></path><path d="M659.302 314.183c-48.717 0.121-96.53 11.987-139.83 34.224-41.947 21.542-77.539 53.471-105.555 91.175-57.046 76.772-72.735 180.91-43.141 271.561 29.587 90.631 101.339 162.442 191.148 193.697 90.276 31.418 194.544 15.945 272.205-39.502 38.263-27.319 70.275-62.915 92.584-104.376 22.997-42.738 35.24-90.727 36.083-139.218 0.846-48.716-10.907-97.033-32.519-140.566-20.997-42.293-52.529-78.167-89.876-106.719-51.481-39.358-116.491-60.116-181.099-60.276-12.538-0.031-23 10.486-23 23 0 12.562 10.463 22.969 23 23a293.69 293.69 0 0 1 34.809 2.148c5.04 0.614-5.674-0.8-0.655-0.088a279.615 279.615 0 0 1 12.158 2.031c5.788 1.083 11.532 2.393 17.239 3.842 10.854 2.756 21.517 6.246 31.957 10.289 1.686 0.653 10.282 4.261 3.145 1.219a278.874 278.874 0 0 1 7.289 3.252c5.22 2.404 10.347 5.006 15.407 7.727 9.688 5.208 19.028 11.054 28.037 17.36a283.973 283.973 0 0 1 9.542 7.016c-5.494-4.2-1.656-1.261-0.514-0.354 4.459 3.542 8.785 7.25 13.021 11.054 8.144 7.314 15.809 15.155 23.049 23.361 3.479 3.942 6.819 8.005 10.073 12.135 2.996 3.805-3.315-4.344-0.39-0.484a281.284 281.284 0 0 1 7.68 10.691c6.233 9.074 11.868 18.552 16.994 28.292 2.473 4.699 4.778 9.484 6.979 14.315 0.552 1.211 1.086 2.43 1.621 3.648 1.97 4.493-2.122-5.121-0.236-0.588a283.127 283.127 0 0 1 3.424 8.698c3.959 10.498 7.205 21.257 9.87 32.152 1.293 5.29 2.393 10.626 3.374 15.982 0.494 2.695 0.929 5.402 1.343 8.111 0.231 1.514 0.9 6.532-0.056-0.664 0.242 1.825 0.453 3.654 0.66 5.483 1.309 11.591 1.817 23.27 1.673 34.931-0.069 5.604-0.347 11.206-0.749 16.797a284.34 284.34 0 0 1-1.204 12.423c-0.769 6.577 0.514-3.458-0.079 0.718-3.17 22.325-9.22 44.206-17.667 65.102-0.554 1.371-2.492 5.878 0.261-0.574-0.522 1.225-1.063 2.442-1.603 3.659a280.573 280.573 0 0 1-3.356 7.235c-2.479 5.182-5.154 10.268-7.946 15.286-5.348 9.61-11.327 18.861-17.761 27.776-1.042 1.443-6.61 8.767-1.934 2.713a280.421 280.421 0 0 1-4.926 6.165c-3.606 4.408-7.376 8.68-11.242 12.861-7.433 8.04-15.385 15.593-23.697 22.716a283.65 283.65 0 0 1-9.161 7.489c5.434-4.275 1.646-1.272 0.482-0.392-4.551 3.445-9.229 6.72-13.979 9.882-9.17 6.104-18.737 11.603-28.559 16.586-4.739 2.405-9.563 4.641-14.431 6.771-4.494 1.967 5.121-2.122 0.587-0.24a277.843 277.843 0 0 1-12.471 4.795c-10.57 3.805-21.394 6.89-32.344 9.388-5.319 1.214-10.681 2.231-16.061 3.13-1.845 0.309-11.358 1.626-3.399 0.576a279.03 279.03 0 0 1-9.612 1.074c-11.621 1.126-23.313 1.439-34.981 1.122-5.569-0.151-11.132-0.508-16.683-0.989a281.08 281.08 0 0 1-8.24-0.856c-1.523-0.178-6.545-0.864 0.66 0.118a276.63 276.63 0 0 1-5.421-0.807c-11.163-1.747-22.201-4.254-33.066-7.343-5.157-1.467-10.261-3.12-15.324-4.882a275.83 275.83 0 0 1-7.517-2.759c-1.245-0.474-2.482-0.965-3.721-1.456-1.459-0.58-7.474-3.125-0.648-0.224-10.146-4.313-19.999-9.297-29.562-14.775-9.508-5.446-18.652-11.515-27.458-18.031a277.482 277.482 0 0 1-3.141-2.37c5.507 4.195 1.667 1.277 0.52 0.369a284.394 284.394 0 0 1-6.085-4.98c-4.351-3.646-8.565-7.452-12.688-11.354-7.929-7.502-15.367-15.514-22.374-23.88a280.895 280.895 0 0 1-4.951-6.11c-2.999-3.79 3.318 4.351 0.39 0.505-0.795-1.044-1.575-2.099-2.355-3.153-3.385-4.576-6.598-9.276-9.699-14.048-5.988-9.215-11.367-18.817-16.232-28.668a276.854 276.854 0 0 1-3.4-7.181c-0.754-1.644-4.399-10.187-1.396-3.021-2.233-5.327-4.262-10.737-6.159-16.191-3.686-10.594-6.65-21.433-9.03-32.392-1.156-5.325-2.117-10.69-2.958-16.074-0.212-1.354-0.404-2.71-0.596-4.066 1.018 7.197 0.304 2.188 0.119 0.662a281.392 281.392 0 0 1-0.976-9.615c-1.007-11.63-1.205-23.323-0.771-34.985 0.207-5.57 0.621-11.131 1.158-16.679 0.267-2.75 0.594-5.494 0.942-8.236-0.913 7.197-0.285 2.182-0.062 0.664 0.266-1.809 0.563-3.613 0.864-5.416 1.865-11.157 4.491-22.181 7.699-33.024 1.524-5.149 3.234-10.242 5.053-15.295a278.784 278.784 0 0 1 4.344-11.209c0.935-2.245 0.679-1.643-0.768 1.81 0.35-0.814 0.704-1.629 1.062-2.441 8.839-20.183 20.21-39.223 33.509-56.776 2.924-3.86-3.367 4.304-0.372 0.5 0.813-1.033 1.641-2.054 2.468-3.076a283.442 283.442 0 0 1 5.063-6.044c3.705-4.321 7.57-8.502 11.529-12.591 7.615-7.865 15.737-15.229 24.21-22.157 1.018-0.833 2.047-1.65 3.076-2.468 3.791-3.012-4.346 3.314-0.499 0.373a279.175 279.175 0 0 1 6.348-4.692c4.631-3.34 9.385-6.506 14.21-9.558 9.318-5.895 19.021-11.17 28.967-15.926a285.83 285.83 0 0 1 6.034-2.78c1.214-0.545 2.436-1.073 3.657-1.601-6.438 2.781-1.947 0.825-0.576 0.263 4.535-1.858 9.133-3.563 13.76-5.179 9.334-3.259 18.86-5.95 28.486-8.196 4.864-1.135 9.766-2.103 14.683-2.974 2.249-0.398 4.505-0.753 6.763-1.096 1.515-0.23 6.531-0.887-0.666 0.062 1.367-0.18 2.737-0.34 4.107-0.5 10.635-1.243 21.344-1.794 32.048-1.821 12.537-0.031 23-10.438 23-23 0.004-12.513-10.458-23.03-22.996-22.998zM87.239 596.215h205.736c12.538 0 23-10.462 23-23s-10.462-23-23-23H87.239c-12.538 0-23 10.462-23 23s10.462 23 23 23h205.736c12.538 0 23-10.462 23-23s-10.462-23-23-23H87.239c-12.538 0-23 10.462-23 23s10.462 23 23 23z m3.888 201.792h225.182c12.538 0 23-10.462 23-23s-10.462-23-23-23H91.127c-12.538 0-23 10.462-23 23s10.462 23 23 23h225.182c12.538 0 23-10.462 23-23s-10.462-23-23-23H91.127c-12.538 0-23 10.462-23 23s10.462 23 23 23z" p-id="48689"></path></svg>