<?xml version="1.0" standalone="no"?><!DOCTYPE svg PUBLIC "-//W3C//DTD SVG 1.1//EN" "http://www.w3.org/Graphics/SVG/1.1/DTD/svg11.dtd"><svg t="1731059100712" class="icon" viewBox="0 0 1024 1024" version="1.1" xmlns="http://www.w3.org/2000/svg" p-id="38527" xmlns:xlink="http://www.w3.org/1999/xlink" width="200" height="200"><path d="M877.714286 24.380952H146.285714a73.142857 73.142857 0 0 0-73.142857 73.142858v828.95238a73.142857 73.142857 0 0 0 73.142857 73.142858h731.428572a73.142857 73.142857 0 0 0 73.142857-73.142858V97.52381a73.142857 73.142857 0 0 0-73.142857-73.142858z m-195.047619 48.761905v73.142857a24.380952 24.380952 0 0 1-24.380953 24.380953H365.714286a24.380952 24.380952 0 0 1-24.380953-24.380953V73.142857z m219.428571 853.333333a24.380952 24.380952 0 0 1-24.380952 24.380953H146.285714a24.380952 24.380952 0 0 1-24.380952-24.380953V97.52381a24.380952 24.380952 0 0 1 24.380952-24.380953h146.285715v73.142857a73.142857 73.142857 0 0 0 73.142857 73.142857h292.571428a73.142857 73.142857 0 0 0 73.142857-73.142857V73.142857h146.285715a24.380952 24.380952 0 0 1 24.380952 24.380953z" p-id="38528"></path><path d="M755.809524 365.714286H268.190476a24.380952 24.380952 0 0 0 0 48.761904h487.619048a24.380952 24.380952 0 1 0 0-48.761904zM633.904762 560.761905H268.190476a24.380952 24.380952 0 0 0 0 48.761905h365.714286a24.380952 24.380952 0 1 0 0-48.761905zM512 755.809524H268.190476a24.380952 24.380952 0 0 0 0 48.761905h243.809524a24.380952 24.380952 0 1 0 0-48.761905z" p-id="38529"></path></svg>
