<?xml version="1.0" standalone="no"?><!DOCTYPE svg PUBLIC "-//W3C//DTD SVG 1.1//EN" "http://www.w3.org/Graphics/SVG/1.1/DTD/svg11.dtd"><svg t="1731061210014" class="icon" viewBox="0 0 1024 1024" version="1.1" xmlns="http://www.w3.org/2000/svg" p-id="50929" xmlns:xlink="http://www.w3.org/1999/xlink" width="200" height="200"><path d="M584.755536 948.640662 434.094164 948.640662l-22.505573-134.932132c-15.800871-5.120624-31.295773-11.54801-46.289256-19.197224L253.896082 874.0355 147.37707 767.523651l79.558987-111.412462c-7.594979-14.84408-14.013155-30.361495-19.175735-46.286186L72.771909 587.31022 72.771909 436.664198l134.994554-22.535249c5.136997-15.836687 11.556197-31.314193 19.178805-46.26879l-79.568197-111.412462L253.904269 149.937894l111.385856 79.540567c14.885012-7.594979 30.391171-14.004969 46.298466-19.157315l22.505573-134.987391 150.662395 0 22.506597 134.933155c15.800871 5.117554 31.298843 11.544941 46.290279 19.196201L764.955664 149.937894l106.520035 106.508779-79.562057 111.412462c7.594979 14.848173 14.018272 30.344099 19.176758 46.288233l134.988414 22.515806 0 150.661372-135.000694 22.449291c-5.124717 15.811104-11.541871 31.311123-19.186991 46.266743l79.583546 111.412462L764.955664 873.961822l-111.394043-79.486332c-14.892175 7.612375-30.389124 14.022365-46.298466 19.176758L584.755536 948.640662zM465.247698 911.8702l88.357374 0 21.187555-127.036301 11.220552-3.157923c20.86419-5.907547 41.047882-14.258749 59.979046-24.835641l10.172687-5.67014 104.809067 74.78117 62.467727-62.4841-74.851778-104.786555 5.662977-10.165524c10.650571-19.1215 19.017122-39.317471 24.861224-60.005652l3.168156-11.237949 127.024022-21.115923 0-88.358397-127.013789-21.187555-3.177366-11.205203c-5.913687-20.933775-14.274098-41.099047-24.842805-59.969836l-5.699816-10.163477 74.871221-104.841813L760.975003 197.951421l-104.802928 74.816986-10.161431-5.655813c-19.159362-10.683317-39.347147-19.048845-59.997466-24.883737l-11.220552-3.163039L553.605072 112.105241l-88.357374 0-21.179368 127.016859-11.213389 3.157923c-20.88261 5.907547-41.071418 14.276145-59.997466 24.850991l-10.169617 5.675256-104.817254-74.854848-62.463634 62.48103 74.855872 104.807021-5.668093 10.17985c-10.627035 19.049868-18.993586 39.253002-24.857131 59.988256l-3.177366 11.205203-127.016859 21.187555 0 88.373747 127.026068 21.173229 3.168156 11.202133c5.916756 20.933775 14.275121 41.11849 24.841781 59.983139l5.698792 10.16757-74.871221 104.836697 62.473867 62.48717 104.796788-74.821079 10.163477 5.659907c19.167548 10.68127 39.34817 19.044752 59.996442 24.869411l11.220552 3.174296L465.247698 911.8702z" p-id="50930"></path><path d="M590.38986 955.292152 428.45984 955.292152l-22.771633-136.53156c-13.507642-4.571109-26.857694-10.108219-39.790238-16.504906l-112.721271 80.465636L138.690224 768.243035l80.498382-112.728434c-6.336312-12.790304-11.866259-26.140357-16.48137-39.789215L66.120418 592.944544 66.120418 431.03192l136.595005-22.803355c4.576225-13.514805 10.107195-26.858718 16.486486-39.766702L138.689201 255.727289l114.495684-114.476241 112.704898 80.482009c12.828167-6.340405 26.180266-11.865235 39.797401-16.46602l22.771633-136.585795L590.38986 68.681242l22.773679 136.53156c13.511735 4.570085 26.861788 10.107195 39.791262 16.503882l112.720248-80.465636 114.487497 114.475218-80.502475 112.729457c6.361895 12.839423 11.891841 26.189476 16.48444 39.791262l136.585795 22.782889 0 161.931043-136.600121 22.715351c-4.586458 13.558807-10.120498 26.900673-16.491603 39.764656l80.524988 112.730481-114.487497 114.473171L652.965034 802.220894c-12.81998 6.347568-26.175149 11.878538-39.801495 16.48444L590.38986 955.292152zM439.727465 941.989171l139.393747 0 22.24463-133.418662 3.846608-1.246387c15.582907-5.048993 30.831192-11.363815 45.320185-18.771529l3.601015-1.840928 110.101607 78.56331 98.552573-98.54234-78.659501-110.11798 1.840928-3.602038c7.440459-14.557554 13.760398-29.794583 18.781762-45.290509l1.24741-3.847631 133.429919-22.188348L939.428348 442.298522l-133.420709-22.254863-1.245364-3.847631c-5.030573-15.549138-11.345396-30.792307-18.770506-45.306882l-1.842974-3.602038 78.640058-110.120027-98.552573-98.54234-110.107747 78.600149-3.599991-1.836835c-14.645558-7.474228-29.891797-13.797237-45.316092-18.793018l-3.846608-1.245364L579.122235 81.984223 439.728488 81.984223l-22.243607 133.417639-3.846608 1.245364c-15.573697 5.0449-30.823006 11.354606-45.325301 18.755156l-3.599991 1.836835-110.090351-78.615499-98.558713 98.54234 78.641081 110.113887-1.833765 3.598968c-7.452739 14.623046-13.770632 29.864168-18.777669 45.300742l-1.24741 3.843538L79.423399 442.297498l0 139.378397 133.416616 22.252817 1.246387 3.844561c5.063319 15.617699 11.378142 30.861892 18.770506 45.307905l1.842974 3.603061-78.635965 110.120027 98.552573 98.54541 110.106724-78.599126 3.598968 1.835811c14.650675 7.474228 29.897937 13.797237 45.318138 18.794042l3.845585 1.246387L439.727465 941.989171zM559.239396 918.52169l-99.624998 0L438.191482 790.159184l-7.164167-2.026146c-21.142529-5.963829-41.810245-14.529925-61.423955-25.459858l-6.484691-3.611248-105.957217 75.649957-70.440305-70.456678 75.691913-105.98587-3.634784-6.484691c-10.821463-19.320021-19.380396-39.98569-25.440415-61.426001l-2.02103-7.142677-128.424928-21.407566 0-99.642394 128.418788-21.421892 2.028193-7.151887c6.011924-21.259186 14.573927-41.922808 25.447579-61.413721l3.618411-6.497994-75.683726-105.966427 70.431096-70.450539 105.974613 75.68168 6.490831-3.622504c19.398816-10.838859 40.067554-19.399839 61.428048-25.443485l7.157004-2.015913 21.411659-128.409578 99.624998 0 21.420869 128.355343 7.15905 2.01796c21.181415 5.986341 41.84913 14.557554 61.432141 25.476231l6.480598 3.607154 105.96438-75.646887 70.434166 70.449515-75.691913 105.989963 3.634784 6.480598c10.835789 19.346627 19.394722 40.009226 25.442462 61.415768l2.026146 7.145747 128.415718 21.421892 0 99.629091-128.418788 21.347191-2.023076 7.1744c-5.988388 21.196765-14.550391 41.866526-25.451672 61.437258l-3.614317 6.487761 75.679633 105.945961-70.433142 70.451562L655.72796 759.029186l-6.497994 3.621481c-19.352767 10.812253-40.014342 19.368116-61.404512 25.425066l-7.167237 2.016937L559.239396 918.52169zM470.880999 905.21871l77.089749 0 20.956288-125.642558 15.285125-4.301979c20.384259-5.77247 40.08188-13.928221 58.537208-24.240077l13.854543-7.721869 103.649662 73.954339 54.502311-54.515614-74.024947-103.628172 7.712659-13.842263c10.397814-18.668175 18.564821-38.377052 24.270776-58.576093l4.312212-15.299451 125.629255-20.883633 0-77.087703-125.611859-20.954241-4.327562-15.257495c-5.76633-20.408819-13.923104-40.101323-24.24724-58.534138l-7.763824-13.842263 74.05053-103.693664-54.501288-54.512544-103.641475 73.988108-13.836123-7.701402c-18.684548-10.419304-38.389332-18.591427-58.570977-24.295336l-15.277962-4.306072L547.971771 118.756731l-77.089749 0-20.947078 125.623116-15.275915 4.303003c-20.35663 5.758144-40.059368 13.920034-58.556651 24.255427l-13.851473 7.730055-103.659895-74.028017-54.496172 54.512544 74.026994 103.647615-7.715729 13.856589c-10.372232 18.591427-18.536168 38.293141-24.267706 58.561767l-4.328585 15.263635-125.614929 20.953218 0 77.106122 125.628232 20.939915 4.315282 15.260565c5.776563 20.437471 13.933337 40.134069 24.24417 58.542324l7.761778 13.848403-74.05053 103.687524 54.507428 54.518684 103.635335-73.993225 13.839193 7.707542c18.711154 10.426467 38.415938 18.594497 58.56586 24.278963l15.282055 4.322445L470.880999 905.21871z" p-id="50931"></path><path d="M509.42485 640.689964c-70.968331 0-128.703267-57.747215-128.703267-128.703267 0-70.958098 57.734936-128.70429 128.703267-128.70429 70.958098 0 128.695081 57.746192 128.695081 128.70429C638.119931 582.942749 580.382948 640.689964 509.42485 640.689964zM509.42485 401.671219c-60.832484 0-110.314455 49.481971-110.314455 110.315478 0 60.829414 49.481971 110.319571 110.314455 110.319571 60.823274 0 110.311385-49.490158 110.311385-110.319571C619.736235 451.15319 570.248124 401.671219 509.42485 401.671219z" p-id="50932"></path><path d="M509.42485 657.062863c-79.994915 0-145.076166-65.081251-145.076166-145.076166 0-79.995939 65.081251-145.07719 145.076166-145.07719 79.990822 0 145.06798 65.081251 145.06798 145.07719C654.49283 591.981612 589.415672 657.062863 509.42485 657.062863zM509.42485 418.044118c-51.79976 0-93.941556 42.142819-93.941556 93.942579 0 51.80283 42.141796 93.946672 93.941556 93.946672 51.797713 0 93.938486-42.144866 93.938486-93.946672C603.363336 460.186937 561.222563 418.044118 509.42485 418.044118z" p-id="50933"></path></svg>