<?xml version="1.0" standalone="no"?><!DOCTYPE svg PUBLIC "-//W3C//DTD SVG 1.1//EN" "http://www.w3.org/Graphics/SVG/1.1/DTD/svg11.dtd"><svg t="1730456965624" class="icon" viewBox="0 0 1024 1024" version="1.1" xmlns="http://www.w3.org/2000/svg" p-id="6075" xmlns:xlink="http://www.w3.org/1999/xlink" width="200" height="200"><path d="M547.328 296.661333l207.786667 200.448a17.578667 17.578667 0 0 0 24.405333 0l25.941333-25.173333a17.066667 17.066667 0 0 0 0-24.576l-281.258666-271.786667a17.578667 17.578667 0 0 0-24.405334 0l-281.258666 271.786667a17.066667 17.066667 0 0 0 0 24.576l25.941333 25.173333a17.578667 17.578667 0 0 0 24.448 0l207.786667-200.448v539.434667c0 9.514667 7.765333 17.237333 17.408 17.237333h35.754666c9.642667 0 17.450667-7.68 17.450667-17.237333V296.661333z" p-id="6076"></path></svg>
